<svg width="140" height="43" viewBox="0 0 140 43" fill="none" xmlns="http://www.w3.org/2000/svg">
<path d="M51.462 26.1415C49.734 26.1415 48.384 25.7215 47.412 24.8815C46.44 24.0295 45.924 22.8235 45.864 21.2635C45.852 20.9155 45.846 20.3635 45.846 19.6075C45.846 18.8515 45.852 18.2995 45.864 17.9515C45.924 16.4275 46.446 15.2515 47.43 14.4235C48.426 13.5955 49.77 13.1815 51.462 13.1815C52.602 13.1815 53.592 13.3675 54.432 13.7395C55.284 14.1115 55.932 14.5855 56.376 15.1615C56.832 15.7375 57.072 16.3315 57.096 16.9435C57.096 17.0515 57.054 17.1415 56.97 17.2135C56.898 17.2855 56.808 17.3215 56.7 17.3215H54.072C53.952 17.3215 53.856 17.3035 53.784 17.2675C53.712 17.2315 53.652 17.1655 53.604 17.0695C53.448 16.7215 53.202 16.4215 52.866 16.1695C52.53 15.9055 52.062 15.7735 51.462 15.7735C50.034 15.7735 49.284 16.5295 49.212 18.0415C49.2 18.3775 49.194 18.8995 49.194 19.6075C49.194 20.3035 49.2 20.8255 49.212 21.1735C49.284 22.7575 50.052 23.5495 51.516 23.5495C52.224 23.5495 52.788 23.3695 53.208 23.0095C53.64 22.6375 53.856 22.0735 53.856 21.3175V20.9755H52.164C52.032 20.9755 51.924 20.9335 51.84 20.8495C51.756 20.7535 51.714 20.6395 51.714 20.5075V19.1755C51.714 19.0435 51.756 18.9355 51.84 18.8515C51.924 18.7555 52.032 18.7075 52.164 18.7075H56.7C56.832 18.7075 56.94 18.7555 57.024 18.8515C57.108 18.9355 57.15 19.0435 57.15 19.1755V21.2275C57.15 22.2475 56.916 23.1295 56.448 23.8735C55.98 24.6055 55.314 25.1695 54.45 25.5655C53.598 25.9495 52.602 26.1415 51.462 26.1415ZM63.4451 26.1415C61.9571 26.1415 60.8111 25.7875 60.0071 25.0795C59.2031 24.3715 58.7651 23.3755 58.6931 22.0915C58.6811 21.9355 58.6751 21.6655 58.6751 21.2815C58.6751 20.8975 58.6811 20.6275 58.6931 20.4715C58.7651 19.1995 59.2151 18.2095 60.0431 17.5015C60.8711 16.7815 62.0051 16.4215 63.4451 16.4215C64.8971 16.4215 66.0371 16.7815 66.8651 17.5015C67.6931 18.2095 68.1431 19.1995 68.2151 20.4715C68.2271 20.6275 68.2331 20.8975 68.2331 21.2815C68.2331 21.6655 68.2271 21.9355 68.2151 22.0915C68.1431 23.3755 67.7051 24.3715 66.9011 25.0795C66.0971 25.7875 64.9451 26.1415 63.4451 26.1415ZM63.4451 23.9455C63.9731 23.9455 64.3631 23.7895 64.6151 23.4775C64.8671 23.1535 65.0111 22.6615 65.0471 22.0015C65.0591 21.8815 65.0651 21.6415 65.0651 21.2815C65.0651 20.9215 65.0591 20.6815 65.0471 20.5615C65.0111 19.9135 64.8611 19.4275 64.5971 19.1035C64.3451 18.7795 63.9611 18.6175 63.4451 18.6175C62.4491 18.6175 61.9211 19.2655 61.8611 20.5615L61.8431 21.2815L61.8611 22.0015C61.8851 22.6615 62.0231 23.1535 62.2751 23.4775C62.5391 23.7895 62.9291 23.9455 63.4451 23.9455Z" fill="black"/>
<path d="M75.385 26.1415C73.669 26.1415 72.325 25.7275 71.353 24.8995C70.393 24.0595 69.883 22.8475 69.823 21.2635C69.811 20.9395 69.805 20.4115 69.805 19.6795C69.805 18.9355 69.811 18.3955 69.823 18.0595C69.883 16.4995 70.405 15.2995 71.389 14.4595C72.373 13.6075 73.705 13.1815 75.385 13.1815C76.441 13.1815 77.389 13.3615 78.229 13.7215C79.069 14.0695 79.729 14.5735 80.209 15.2335C80.701 15.8815 80.953 16.6435 80.965 17.5195V17.5555C80.965 17.6515 80.923 17.7355 80.839 17.8075C80.767 17.8675 80.683 17.8975 80.587 17.8975H78.157C78.001 17.8975 77.881 17.8675 77.797 17.8075C77.713 17.7355 77.641 17.6095 77.581 17.4295C77.413 16.8175 77.149 16.3915 76.789 16.1515C76.429 15.8995 75.955 15.7735 75.367 15.7735C73.951 15.7735 73.219 16.5655 73.171 18.1495C73.159 18.4735 73.153 18.9715 73.153 19.6435C73.153 20.3155 73.159 20.8255 73.171 21.1735C73.219 22.7575 73.951 23.5495 75.367 23.5495C75.955 23.5495 76.435 23.4235 76.807 23.1715C77.179 22.9075 77.437 22.4815 77.581 21.8935C77.629 21.7135 77.695 21.5935 77.779 21.5335C77.863 21.4615 77.989 21.4255 78.157 21.4255H80.587C80.695 21.4255 80.785 21.4615 80.857 21.5335C80.941 21.6055 80.977 21.6955 80.965 21.8035C80.953 22.6795 80.701 23.4475 80.209 24.1075C79.729 24.7555 79.069 25.2595 78.229 25.6195C77.389 25.9675 76.441 26.1415 75.385 26.1415ZM87.0877 26.1415C85.5997 26.1415 84.4537 25.7875 83.6497 25.0795C82.8457 24.3715 82.4077 23.3755 82.3357 22.0915C82.3237 21.9355 82.3177 21.6655 82.3177 21.2815C82.3177 20.8975 82.3237 20.6275 82.3357 20.4715C82.4077 19.1995 82.8577 18.2095 83.6857 17.5015C84.5137 16.7815 85.6477 16.4215 87.0877 16.4215C88.5397 16.4215 89.6797 16.7815 90.5077 17.5015C91.3357 18.2095 91.7857 19.1995 91.8577 20.4715C91.8697 20.6275 91.8757 20.8975 91.8757 21.2815C91.8757 21.6655 91.8697 21.9355 91.8577 22.0915C91.7857 23.3755 91.3477 24.3715 90.5437 25.0795C89.7397 25.7875 88.5877 26.1415 87.0877 26.1415ZM87.0877 23.9455C87.6157 23.9455 88.0057 23.7895 88.2577 23.4775C88.5097 23.1535 88.6537 22.6615 88.6897 22.0015C88.7017 21.8815 88.7077 21.6415 88.7077 21.2815C88.7077 20.9215 88.7017 20.6815 88.6897 20.5615C88.6537 19.9135 88.5037 19.4275 88.2397 19.1035C87.9877 18.7795 87.6037 18.6175 87.0877 18.6175C86.0917 18.6175 85.5637 19.2655 85.5037 20.5615L85.4857 21.2815L85.5037 22.0015C85.5277 22.6615 85.6657 23.1535 85.9177 23.4775C86.1817 23.7895 86.5717 23.9455 87.0877 23.9455ZM94.1136 25.9615C93.9816 25.9615 93.8736 25.9195 93.7896 25.8355C93.7056 25.7515 93.6636 25.6435 93.6636 25.5115V17.0515C93.6636 16.9195 93.7056 16.8115 93.7896 16.7275C93.8736 16.6435 93.9816 16.6015 94.1136 16.6015H96.1836C96.3156 16.6015 96.4236 16.6495 96.5076 16.7455C96.6036 16.8295 96.6516 16.9315 96.6516 17.0515V17.7715C97.3116 16.9915 98.1996 16.6015 99.3156 16.6015H100.108C100.24 16.6015 100.348 16.6435 100.432 16.7275C100.516 16.8115 100.558 16.9195 100.558 17.0515V18.9055C100.558 19.0255 100.516 19.1335 100.432 19.2295C100.348 19.3135 100.24 19.3555 100.108 19.3555H98.3616C97.8696 19.3555 97.4856 19.4935 97.2096 19.7695C96.9456 20.0335 96.8136 20.4115 96.8136 20.9035V25.5115C96.8136 25.6435 96.7656 25.7515 96.6696 25.8355C96.5856 25.9195 96.4776 25.9615 96.3456 25.9615H94.1136ZM106.178 26.1415C104.69 26.1415 103.544 25.7875 102.74 25.0795C101.936 24.3715 101.498 23.3755 101.426 22.0915C101.414 21.9355 101.408 21.6655 101.408 21.2815C101.408 20.8975 101.414 20.6275 101.426 20.4715C101.498 19.1995 101.948 18.2095 102.776 17.5015C103.604 16.7815 104.738 16.4215 106.178 16.4215C107.63 16.4215 108.77 16.7815 109.598 17.5015C110.426 18.2095 110.876 19.1995 110.948 20.4715C110.96 20.6275 110.966 20.8975 110.966 21.2815C110.966 21.6655 110.96 21.9355 110.948 22.0915C110.876 23.3755 110.438 24.3715 109.634 25.0795C108.83 25.7875 107.678 26.1415 106.178 26.1415ZM106.178 23.9455C106.706 23.9455 107.096 23.7895 107.348 23.4775C107.6 23.1535 107.744 22.6615 107.78 22.0015C107.792 21.8815 107.798 21.6415 107.798 21.2815C107.798 20.9215 107.792 20.6815 107.78 20.5615C107.744 19.9135 107.594 19.4275 107.33 19.1035C107.078 18.7795 106.694 18.6175 106.178 18.6175C105.182 18.6175 104.654 19.2655 104.594 20.5615L104.576 21.2815L104.594 22.0015C104.618 22.6615 104.756 23.1535 105.008 23.4775C105.272 23.7895 105.662 23.9455 106.178 23.9455ZM113.203 25.9615C113.071 25.9615 112.963 25.9195 112.879 25.8355C112.795 25.7515 112.753 25.6435 112.753 25.5115V17.0515C112.753 16.9195 112.795 16.8115 112.879 16.7275C112.963 16.6435 113.071 16.6015 113.203 16.6015H115.273C115.405 16.6015 115.513 16.6435 115.597 16.7275C115.693 16.8115 115.741 16.9195 115.741 17.0515V17.7355C116.065 17.3395 116.479 17.0215 116.983 16.7815C117.499 16.5415 118.081 16.4215 118.729 16.4215C119.785 16.4215 120.643 16.7815 121.303 17.5015C121.963 18.2095 122.293 19.2055 122.293 20.4895V25.5115C122.293 25.6315 122.251 25.7395 122.167 25.8355C122.083 25.9195 121.975 25.9615 121.843 25.9615H119.575C119.455 25.9615 119.347 25.9195 119.251 25.8355C119.167 25.7395 119.125 25.6315 119.125 25.5115V20.5975C119.125 20.0335 118.987 19.6015 118.711 19.3015C118.435 18.9895 118.039 18.8335 117.523 18.8335C117.019 18.8335 116.623 18.9895 116.335 19.3015C116.047 19.6015 115.903 20.0335 115.903 20.5975V25.5115C115.903 25.6315 115.861 25.7395 115.777 25.8355C115.693 25.9195 115.585 25.9615 115.453 25.9615H113.203ZM127.128 26.1415C126.492 26.1415 125.91 26.0215 125.382 25.7815C124.866 25.5295 124.458 25.1935 124.158 24.7735C123.87 24.3415 123.726 23.8675 123.726 23.3515C123.726 22.5235 124.062 21.8575 124.734 21.3535C125.418 20.8495 126.354 20.5015 127.542 20.3095L129.792 19.9675V19.7155C129.792 19.2595 129.696 18.9235 129.504 18.7075C129.312 18.4915 128.988 18.3835 128.532 18.3835C128.256 18.3835 128.028 18.4315 127.848 18.5275C127.668 18.6235 127.482 18.7555 127.29 18.9235C127.122 19.0675 126.996 19.1635 126.912 19.2115C126.876 19.3075 126.81 19.3555 126.714 19.3555H124.752C124.632 19.3555 124.53 19.3195 124.446 19.2475C124.374 19.1635 124.344 19.0675 124.356 18.9595C124.368 18.6355 124.524 18.2755 124.824 17.8795C125.136 17.4835 125.604 17.1415 126.228 16.8535C126.864 16.5655 127.644 16.4215 128.568 16.4215C130.044 16.4215 131.136 16.7515 131.844 17.4115C132.552 18.0595 132.906 18.9355 132.906 20.0395V25.5115C132.906 25.6315 132.864 25.7395 132.78 25.8355C132.696 25.9195 132.588 25.9615 132.456 25.9615H130.368C130.248 25.9615 130.14 25.9195 130.044 25.8355C129.96 25.7395 129.918 25.6315 129.918 25.5115V24.8815C129.654 25.2535 129.282 25.5595 128.802 25.7995C128.334 26.0275 127.776 26.1415 127.128 26.1415ZM127.974 24.0895C128.526 24.0895 128.97 23.9095 129.306 23.5495C129.654 23.1895 129.828 22.6615 129.828 21.9655V21.7135L128.298 21.9835C127.218 22.1755 126.678 22.5535 126.678 23.1175C126.678 23.4175 126.804 23.6575 127.056 23.8375C127.308 24.0055 127.614 24.0895 127.974 24.0895Z" fill="#EC5863"/>
<path d="M14.3388 6.76145C15.7768 6.22363 17.3451 6.88738 17.8408 8.24331C18.2203 9.28143 17.8605 10.4235 17.027 11.1437L17.4616 12.3786L18.1641 13.2029C18.3244 13.3916 18.5696 13.4788 18.8165 13.4435C19.4822 13.3484 20.1431 13.3336 20.7895 13.3917C21.0085 13.4116 21.2274 13.3339 21.3863 13.175L21.9041 12.6596L22.2931 11.5299C21.9758 11.0851 21.8727 10.4905 22.069 9.92027C22.402 8.95368 23.464 8.43848 24.4003 8.81547C25.207 9.1398 25.6387 10.0513 25.3932 10.9108C25.2372 11.4583 24.852 11.873 24.3808 12.0832L23.95 13.3352L24.0388 14.0192C24.0693 14.2543 24.2046 14.4579 24.4037 14.5778C25.0735 14.9832 25.6875 15.4824 26.2251 16.0625C26.4057 16.2577 26.6773 16.338 26.9397 16.2796L28.2899 15.9799L29.8208 15.0917C29.8361 14.3277 30.2435 13.5822 30.9517 13.1712C32.0224 12.5502 33.3671 12.9313 33.9238 14.025C34.4263 15.0116 34.0926 16.2688 33.1588 16.8981C32.4296 17.3886 31.5457 17.3866 30.8674 16.9906L29.3274 17.8836L28.4631 18.8254C28.2312 19.0781 28.146 19.4312 28.2304 19.7589C28.2309 19.7608 28.2312 19.7621 28.2317 19.7641C28.376 20.3288 28.4614 20.8974 28.4935 21.462C28.512 21.7983 28.6959 22.098 28.9868 22.2538L30.097 22.8481L32.3052 23.2349C32.6986 22.8815 33.2374 22.7045 33.7854 22.8C34.7678 22.9724 35.3918 23.9551 35.1298 24.9601C34.9046 25.8208 34.0716 26.4057 33.2075 26.3086C32.6182 26.2424 32.1453 25.8889 31.8942 25.407L29.6718 25.0181L28.2967 25.2127C28.0432 25.2491 27.8206 25.4146 27.715 25.653C27.295 26.5941 26.7196 27.4629 26.0123 28.2167C25.8366 28.4039 25.7687 28.6689 25.8295 28.9147L26.1577 30.2531L26.9872 31.5827C27.9156 31.4249 28.8761 31.8157 29.4028 32.6602C30.111 33.7947 29.7699 35.3194 28.6431 36.0793C27.517 36.8389 25.9975 36.5436 25.2751 35.4236C24.7693 34.6396 24.7733 33.6613 25.1971 32.8778L24.3164 31.4666L23.2255 30.5653C23.0639 30.4311 22.8423 30.3987 22.6429 30.4743C22.4215 30.5583 22.1959 30.6338 21.9652 30.7004C20.712 31.0622 19.4512 31.1282 18.2546 30.9414C18.0791 30.9144 17.899 30.9685 17.7634 31.0894L17.168 31.6217L16.7183 32.7294C17.0107 33.1925 17.0808 33.7925 16.8541 34.3514C16.469 35.2998 15.382 35.7549 14.4694 35.3254C13.6835 34.9555 13.3027 34.0197 13.5943 33.1739C13.78 32.6351 14.1859 32.2421 14.6674 32.0587L15.1656 30.831L15.0857 29.7618C14.2142 29.2185 13.4408 28.5152 12.8109 27.679L11.3096 27.856L9.89882 28.5869C9.89862 29.5447 9.40512 30.4648 8.55022 30.9209C7.34224 31.5648 5.87123 31.0394 5.26503 29.7465C4.659 28.4543 5.14614 26.8846 6.35412 26.2407C7.25811 25.7586 8.30878 25.9314 9.03455 26.591L10.365 25.9012L11.2936 24.8826C11.3543 24.8159 11.3774 24.7233 11.3555 24.6374L11.3551 24.6361C10.9462 23.0355 11.0054 21.4092 11.4459 19.9077C11.4696 19.8253 11.4533 19.7372 11.3997 19.6729L10.6164 18.7237L8.91749 17.8419C8.44504 18.0608 7.88738 18.07 7.3995 17.8165C6.51814 17.3585 6.20997 16.2277 6.74668 15.3368C7.21785 14.5555 8.20824 14.2447 9.00627 14.6269C9.52283 14.8742 9.85299 15.3479 9.9468 15.8766L11.6457 16.7584L12.8602 16.8534C12.9445 16.8602 13.0271 16.8225 13.0813 16.7549C13.6394 16.0525 14.3017 15.4296 15.0522 14.9149C15.2581 14.773 15.3875 14.5416 15.3932 14.2918L15.4166 13.1693L14.9531 11.8533C13.9209 11.7957 12.9927 11.1759 12.6321 10.1899C12.1363 8.83394 12.9005 7.29863 14.3388 6.76145Z" fill="#EC5863"/>
<path d="M26.0418 20.4015C25.1537 16.9259 21.6366 14.9158 18.1862 15.9117C14.7358 16.9077 12.6586 20.5326 13.5467 24.0082C14.4348 27.4838 17.9519 29.494 21.4023 28.498C24.8527 27.502 26.9299 23.8771 26.0418 20.4015Z" fill="#F58A97"/>
<path d="M20.9387 26.6237C17.8277 27.5017 14.6534 25.9089 13.4175 23.0088C13.451 23.3358 13.5092 23.6638 13.5933 23.9908C14.4905 27.4761 18.0007 29.516 21.4338 28.5472C24.8669 27.5784 26.9226 23.9677 26.0254 20.4824C25.9412 20.1555 25.8341 19.8412 25.7061 19.541C26.0295 22.6985 24.0496 25.7458 20.9387 26.6237Z" fill="#F07281"/>
<path d="M11.3369 36.0374C11.0829 35.0453 10.0814 34.4691 9.09986 34.7503C8.11835 35.0316 7.52856 36.0639 7.78253 37.056C8.0365 38.0481 9.03806 38.6243 10.0196 38.343C11.0011 38.0618 11.5909 37.0295 11.3369 36.0374Z" fill="#EB5569"/>
<path d="M34.1191 30.2847C33.9513 29.6294 33.2898 29.2488 32.6415 29.4346C31.9932 29.6204 31.6036 30.3022 31.7714 30.9575C31.9391 31.6128 32.6007 31.9934 33.249 31.8076C33.8973 31.6218 34.2868 30.94 34.1191 30.2847Z" fill="#EB5569"/>
<path d="M30.8554 7.54435C30.6083 6.57915 29.6339 6.01855 28.679 6.29221C27.7241 6.56587 27.1503 7.57016 27.3974 8.53535C27.6445 9.50054 28.6189 10.0611 29.5738 9.78749C30.5287 9.51383 31.1025 8.50954 30.8554 7.54435Z" fill="#EB5569"/>
<path d="M20.2072 24.1748C19.9768 23.275 19.0684 22.7523 18.1781 23.0075C17.2878 23.2626 16.7529 24.1989 16.9832 25.0988C17.2136 25.9986 18.122 26.5213 19.0123 26.2661C19.9026 26.011 20.4375 25.0747 20.2072 24.1748Z" fill="#EB5569"/>
<path d="M24.3187 21.6257C24.1619 21.0132 23.5436 20.6574 22.9377 20.8311C22.3317 21.0048 21.9676 21.6421 22.1244 22.2545C22.2812 22.867 22.8995 23.2228 23.5055 23.0491C24.1114 22.8755 24.4755 22.2382 24.3187 21.6257Z" fill="#EB5569"/>
<path d="M19.9645 19.0518C19.8328 18.5375 19.3136 18.2387 18.8048 18.3846C18.2959 18.5304 17.9902 19.0655 18.1218 19.5798C18.2535 20.0942 18.7727 20.3929 19.2815 20.2471C19.7904 20.1012 20.0961 19.5661 19.9645 19.0518Z" fill="#EB5569"/>
</svg>
